HIERARCHY
ROOT Hips
{
	OFFSET	0.000000	0.000000	0.000000
	CHANNELS 6 Xposition Yposition Zposition Zrotation Xrotation Yrotation
	JOINT LeftUpLeg
	{
		OFFSET	11.840399	-0.173119	-0.075538
		CHANNELS 3 Zrotation Xrotation Yrotation
		JOINT LeftLeg
		{
			OFFSET	0.064808	-44.851298	0.781096
			CHANNELS 3 Zrotation Xrotation Yrotation
			JOINT LeftFoot
			{
				OFFSET	-0.411978	-49.277500	-5.913910
				CHANNELS 3 Zrotation Xrotation Yrotation
				JOINT LeftFootHeel
				{
					OFFSET	0.398859	-7.754640	-1.534350
					CHANNELS 3 Zrotation Xrotation Yrotation
					End Site
					{
						OFFSET	-0.801033	0.000000	15.913000
					}
				}
			}
		}
	}
	JOINT RightUpLeg
	{
		OFFSET	-11.834999	-0.173119	-0.075545
		CHANNELS 3 Zrotation Xrotation Yrotation
		JOINT RightLeg
		{
			OFFSET	0.475869	-44.754298	0.015312
			CHANNELS 3 Zrotation Xrotation Yrotation
			JOINT RightFoot
			{
				OFFSET	-0.134178	-49.374297	-5.148100
				CHANNELS 3 Zrotation Xrotation Yrotation
				JOINT RightFootHeel
				{
					OFFSET	-0.839358	-7.754890	-1.534350
					CHANNELS 3 Zrotation Xrotation Yrotation
					End Site
					{
						OFFSET	-0.408955	0.000000	15.913000
					}
				}
			}
		}
	}
	JOINT Spine
	{
		OFFSET	0.050508	11.209099	-0.582724
		CHANNELS 3 Zrotation Xrotation Yrotation
		JOINT Spine1
		{
			OFFSET	0.042163	9.774660	-1.172990
			CHANNELS 3 Zrotation Xrotation Yrotation
			JOINT LeftShoulder
			{
				OFFSET	5.603600	33.379699	4.558560
				CHANNELS 3 Zrotation Xrotation Yrotation
				JOINT LeftArm
				{
					OFFSET	13.074199	-1.820300	-4.573250
					CHANNELS 3 Zrotation Xrotation Yrotation
					JOINT LeftForeArm
					{
						OFFSET	5.636920	-32.087297	-3.211630
						CHANNELS 3 Zrotation Xrotation Yrotation
						JOINT LeftHand
						{
							OFFSET	3.776520	-29.426399	4.832530
							CHANNELS 3 Zrotation Xrotation Yrotation
							End Site
							{
								OFFSET	-0.179757	-9.309100	2.195490
							}
						}
					}
				}
			}
			JOINT RightShoulder
			{
				OFFSET	-4.623460	33.254699	4.558560
				CHANNELS 3 Zrotation Xrotation Yrotation
				JOINT RightArm
				{
					OFFSET	-13.749399	-1.225980	-4.573250
					CHANNELS 3 Zrotation Xrotation Yrotation
					JOINT RightForeArm
					{
						OFFSET	-4.875480	-32.133799	-3.211650
						CHANNELS 3 Zrotation Xrotation Yrotation
						JOINT RightHand
						{
							OFFSET	-6.200270	-29.009799	4.832530
							CHANNELS 3 Zrotation Xrotation Yrotation
							End Site
							{
								OFFSET	-0.386105	-9.730280	2.195490
							}
						}
					}
				}
			}
			JOINT Neck
			{
				OFFSET	0.427050	38.342097	-0.327886
				CHANNELS 3 Zrotation Xrotation Yrotation
				JOINT Head
				{
					OFFSET	-0.148467	9.384920	4.054140
					CHANNELS 3 Zrotation Xrotation Yrotation
					End Site
					{
						OFFSET	-0.426895	13.303099	0.399781
					}
				}
			}
		}
	}
}
MOTION
Frames:    11
Frame Time: 0.016667
0.000000	101.484889	0.000000	-5.217206	-8.834349	-25.924311	7.969109	0.523929	5.602509	-12.557000	22.074297	-4.507032	1.990122	-10.865904	-8.831503	0.	0.	0.	-5.292679	-4.552969	1.335800	-0.789865	23.123499	-18.253700	5.331310	-5.374941	-3.430338	0.	0.	0.	-0.000001	0.000002	-0.000002	-14.217400	41.687298	7.623870	-0.272685	-8.763860	-5.099341	5.925360	-6.364121	-17.776804	18.497004	-45.296391	-0.085881	0.573556	0.643483	-14.189100	3.604850	-8.324331	4.928109	-1.378191	-11.564499	13.951500	24.496204	-50.614197	23.668695	-7.393419	-3.508665	14.008597	-2.790570	-6.903242	0.533317	4.312850	-7.245062	1.622492	
0.296128	101.481546	-0.052138	-5.324996	-9.202613	-26.251057	7.793719	1.032291	6.542521	-11.973302	21.919600	-4.244230	1.494419	-10.737700	-9.928232	0.	0.	0.	-5.591740	-4.393410	0.833959	-0.912340	23.177496	-17.516596	5.217161	-5.221821	-3.345983	0.	0.	0.	-0.000001	0.000002	-0.000000	-15.054299	42.322594	8.341171	-0.219899	-8.931183	-5.296579	6.632281	-7.558214	-19.182301	18.679003	-46.862495	-1.303323	0.637807	0.368363	-15.650501	3.787411	-8.359401	5.488280	-1.436869	-12.356901	15.431201	25.707808	-51.583599	25.583897	-6.159105	-4.030079	14.683698	-2.906270	-7.137702	0.301125	4.259501	-7.104533	1.800970	
0.493012	101.527164	-0.196368	-5.343682	-9.604738	-26.516439	7.472720	1.491710	7.375898	-11.442201	21.703897	-4.257091	1.221870	-10.558399	-10.655601	0.	0.	0.	-6.002309	-4.245121	0.593625	-0.889463	23.233301	-17.156500	5.064349	-5.035000	-3.200083	0.	0.	0.	-0.000001	0.000001	-0.000001	-15.859298	42.982796	8.870302	-0.259365	-9.102253	-5.465339	7.358071	-8.829756	-20.198799	18.662405	-48.244114	-3.061772	1.319206	-0.075423	-16.846897	4.055310	-8.460472	6.043071	-1.431961	-13.153204	16.836802	26.559603	-52.196014	27.002504	-4.904790	-5.245975	15.141298	-2.889631	-7.373992	0.316980	3.955399	-7.005142	1.805430	
0.753648	101.587451	-0.364986	-5.245959	-9.952641	-26.700218	7.036359	1.861770	7.859069	-11.197599	21.318100	-4.637357	1.264960	-10.235600	-10.606696	0.	0.	0.	-6.359710	-4.090761	0.664366	-0.877490	23.214802	-17.214899	5.026640	-4.864198	-3.000402	0.	0.	0.	-0.000001	0.000001	-0.000003	-16.629299	43.605598	9.163537	-0.286933	-9.344929	-5.626873	7.944369	-9.981519	-20.806602	18.701904	-49.398792	-5.199350	2.313349	-1.399608	-17.405298	4.395570	-8.624519	6.613578	-1.519520	-14.015199	18.082699	27.360901	-52.429008	28.293900	-4.018692	-6.461740	15.044699	-2.840551	-7.672297	0.421400	3.643100	-6.920828	1.852059	
1.052982	101.663066	-0.586312	-5.163338	-10.081050	-26.757666	6.784239	1.957451	7.777021	-11.377199	20.879299	-5.307099	1.573230	-9.769853	-9.725011	0.	0.	0.	-6.728440	-4.191320	0.601681	-0.784178	23.257498	-17.267698	4.903351	-4.632442	-2.823584	0.	0.	0.	-0.000001	0.000002	0.000000	-17.129799	44.128296	9.272951	-0.263855	-9.613501	-5.900070	8.290620	-10.982401	-21.309696	18.781498	-50.388809	-6.908006	3.543709	-3.566732	-17.352198	4.808761	-8.809751	7.029240	-1.765330	-14.969603	19.154900	28.321201	-52.404800	29.626896	-3.589467	-7.335340	14.571996	-2.826521	-8.013350	0.396707	3.555060	-6.894092	1.841092	
1.299823	101.661254	-0.731092	-4.975387	-10.236373	-26.787727	6.504300	1.978521	7.293562	-11.793699	20.563700	-5.435597	1.867231	-9.374350	-8.943378	0.	0.	0.	-7.120660	-4.306188	0.667487	-0.677619	23.342300	-17.346598	4.764999	-4.450188	-2.794439	0.	0.	0.	-0.000001	0.000003	-0.000000	-17.724195	44.625397	9.379422	-0.208903	-9.852661	-6.231000	8.555652	-11.791401	-21.774096	18.760393	-51.568794	-8.018910	5.142743	-6.004577	-16.710102	5.158601	-8.894672	7.394850	-2.032818	-15.911098	19.937998	29.492710	-52.337986	30.908594	-3.282751	-8.032117	14.611997	-2.802808	-8.390953	0.416424	3.645771	-6.975113	1.699791	
1.471342	101.662805	-0.798186	-4.885870	-10.337287	-26.788395	6.324301	1.995069	6.785081	-12.026902	20.345699	-4.893138	1.903048	-9.123240	-8.905190	0.	0.	0.	-7.323790	-4.384830	0.784977	-0.690883	23.308502	-17.543503	4.718209	-4.176481	-2.731733	0.	0.	0.	-0.000001	0.000001	-0.000002	-18.241402	45.092499	9.479081	-0.049902	-10.085698	-6.516320	8.790828	-12.444099	-22.354300	18.774897	-52.787716	-8.767715	7.159577	-8.413464	-15.977200	5.422829	-8.868548	7.787080	-2.158191	-16.670200	20.375999	30.774412	-52.359020	32.471798	-2.949477	-8.562550	15.214096	-2.707821	-8.850700	0.538793	3.828729	-7.081440	1.486209	
1.541838	101.686311	-0.859761	-4.997744	-10.419304	-26.868391	6.381080	2.103910	6.631423	-12.064600	20.248098	-4.166607	1.738711	-8.995753	-9.458357	0.	0.	0.	-7.270970	-4.366951	0.941396	-0.799908	23.269400	-17.703394	4.748371	-3.911989	-2.626585	0.	0.	0.	-0.000001	0.000001	0.000001	-18.681499	45.568893	9.739153	0.159293	-10.270300	-6.733618	9.041681	-13.005798	-22.945894	18.930296	-53.906815	-9.231833	9.030549	-10.528208	-15.507995	5.536081	-8.778659	8.139233	-2.115609	-17.232500	20.417902	32.205013	-52.364002	34.382401	-2.567084	-8.922039	16.003399	-2.516430	-9.334901	0.750740	3.956671	-7.239561	1.200144	
1.675925	101.722743	-0.978378	-5.257928	-10.553028	-27.043837	6.497340	2.263049	6.746598	-12.005301	20.254301	-3.826663	1.650150	-8.891841	-9.817642	0.	0.	0.	-7.121170	-4.253460	1.113128	-0.953266	23.270704	-17.785000	4.863540	-3.652359	-2.434663	0.	0.	0.	-0.000001	0.000001	-0.000004	-19.121801	46.049007	10.141998	0.387363	-10.403700	-6.878441	9.263759	-13.505597	-23.243299	18.739296	-55.011887	-9.909617	10.498998	-12.320695	-15.295005	5.601418	-8.668561	8.509448	-1.957131	-17.667297	20.655499	33.100101	-52.432804	35.678192	-2.322259	-9.276083	16.589500	-2.241700	-9.834350	1.035959	4.001279	-7.383877	0.845446	
1.907603	101.764746	-1.122318	-5.519175	-10.683187	-27.223942	6.529030	2.371641	6.874618	-11.938001	20.270102	-3.970582	1.736449	-8.754679	-9.632542	0.	0.	0.	-7.028240	-4.171111	1.313177	-1.054701	23.301102	-17.927103	5.061129	-3.332749	-2.137816	0.	0.	0.	-0.000000	0.000001	-0.000004	-19.339903	46.351006	10.460299	0.480033	-10.378797	-7.037241	9.398118	-13.791496	-23.120701	18.059101	-56.203091	-11.247300	11.772203	-13.803801	-15.201397	5.491457	-8.480737	8.778308	-1.729650	-17.889692	20.930695	33.840405	-52.512493	36.574390	-2.670581	-9.266136	16.645807	-2.121893	-10.153996	1.135318	4.049138	-7.584648	0.584008	
2.092451	101.800975	-1.233970	-5.648903	-10.756157	-27.267664	6.453010	2.382258	6.913461	-11.825300	20.267996	-4.380880	1.867540	-8.645794	-9.205096	0.	0.	0.	-7.092959	-4.178180	1.349169	-1.098531	23.354000	-18.104403	5.252709	-3.012418	-1.789053	0.	0.	0.	-0.000001	0.000000	-0.000002	-19.645201	46.698700	10.596198	0.594463	-10.432598	-7.067552	9.579188	-14.273396	-23.051903	17.147493	-57.080593	-12.733101	13.029402	-14.985198	-15.009807	5.527090	-8.440219	9.072370	-1.515990	-17.989996	21.317099	34.512299	-52.623188	37.193398	-2.584440	-9.307849	16.876902	-1.935220	-10.544399	1.247649	4.132890	-7.949177	0.411807	
